<?xml version="1.0" encoding="UTF-8" standalone="no"?>
<svg
   width="48"
   height="48"
   viewBox="0 0 48 48"
   version="1.1"
   xml:space="preserve"
   style="clip-rule:evenodd;fill-rule:evenodd;stroke-linecap:round;stroke-linejoin:round;stroke-miterlimit:1.5"
   id="svg144"
   sodipodi:docname="favicon.svg"
   inkscape:version="1.4.2 (ebf0e940d0, 2025-05-08)"
   xmlns:inkscape="http://www.inkscape.org/namespaces/inkscape"
   xmlns:sodipodi="http://sodipodi.sourceforge.net/DTD/sodipodi-0.dtd"
   xmlns="http://www.w3.org/2000/svg"
   xmlns:svg="http://www.w3.org/2000/svg"><sodipodi:namedview
   id="namedview144"
   pagecolor="#ffffff"
   bordercolor="#000000"
   borderopacity="0.25"
   inkscape:showpageshadow="2"
   inkscape:pageopacity="0.0"
   inkscape:pagecheckerboard="0"
   inkscape:deskcolor="#d1d1d1"
   inkscape:zoom="5.3575932"
   inkscape:cx="2.8930902"
   inkscape:cy="26.971066"
   inkscape:window-width="1503"
   inkscape:window-height="933"
   inkscape:window-x="0"
   inkscape:window-y="0"
   inkscape:window-maximized="1"
   inkscape:current-layer="svg144" />
    <g
   transform="matrix(2.9943236,0,0,2.9943236,-1964.232,-622.81927)"
   id="g46">
        <g
   id="g45">
            <g
   id="g40">
                <g
   transform="matrix(0.276385,0,0,0.275862,447.31453,163.03448)"
   id="g37">
                    <g
   transform="rotate(-149.99999,776.00017,189.8564)"
   id="g3">
                        <g
   transform="matrix(-1,0,0,1,1488,0)"
   id="g1">
                            <path
   d="m 719,192 h 2 c 2.813,-8.185 5.118,-15.953 4.559,-21.75 -0.292,-3.029 -1.367,-5.52 -3.559,-7.25 l -1,1 -1,-1 -1,1 -1,-1 c -6.388,5.042 -3.284,16.538 1,29 z"
   style="fill:url(#_Radial1)"
   id="path1" />
                        </g>
                        <g
   transform="matrix(-1,0,0,1,1488,0)"
   id="g2">
                            <path
   d="m 719,192 h 2 c 2.813,-8.185 5.118,-15.953 4.559,-21.75 -0.292,-3.029 -1.367,-5.52 -3.559,-7.25 l -1,1 -1,-1 -1,1 -1,-1 c -6.388,5.042 -3.284,16.538 1,29 z"
   style="fill:url(#_Radial2)"
   id="path2" />
                        </g>
                    </g>
                    <g
   transform="rotate(-59.999988,776.00024,178.14381)"
   id="g6">
                        <g
   transform="matrix(-1,0,0,1,1488,0)"
   id="g4">
                            <path
   d="m 719,192 h 2 c 2.813,-8.185 5.118,-15.953 4.559,-21.75 -0.292,-3.029 -1.367,-5.52 -3.559,-7.25 l -1,1 -1,-1 -1,1 -1,-1 c -6.388,5.042 -3.284,16.538 1,29 z"
   style="fill:url(#_Radial3)"
   id="path3" />
                        </g>
                        <g
   transform="matrix(-1,0,0,1,1488,0)"
   id="g5">
                            <path
   d="m 719,192 h 2 c 2.813,-8.185 5.118,-15.953 4.559,-21.75 -0.292,-3.029 -1.367,-5.52 -3.559,-7.25 l -1,1 -1,-1 -1,1 -1,-1 c -6.388,5.042 -3.284,16.538 1,29 z"
   style="fill:url(#_Radial4)"
   id="path4" />
                        </g>
                    </g>
                    <g
   transform="rotate(59.999988,776.00031,205.85632)"
   id="g9">
                        <g
   transform="matrix(-1,0,0,1,1488,0)"
   id="g7">
                            <path
   d="m 719,192 h 2 c 2.813,-8.185 5.118,-15.953 4.559,-21.75 -0.292,-3.029 -1.367,-5.52 -3.559,-7.25 l -1,1 -1,-1 -1,1 -1,-1 c -6.388,5.042 -3.284,16.538 1,29 z"
   style="fill:url(#_Radial5)"
   id="path6" />
                        </g>
                        <g
   transform="matrix(-1,0,0,1,1488,0)"
   id="g8">
                            <path
   d="m 719,192 h 2 c 2.813,-8.185 5.118,-15.953 4.559,-21.75 -0.292,-3.029 -1.367,-5.52 -3.559,-7.25 l -1,1 -1,-1 -1,1 -1,-1 c -6.388,5.042 -3.284,16.538 1,29 z"
   style="fill:url(#_Radial6)"
   id="path7" />
                        </g>
                    </g>
                    <g
   transform="rotate(-120.00001,776.00005,187.38138)"
   id="g12">
                        <g
   transform="matrix(-1,0,0,1,1488,0)"
   id="g10">
                            <path
   d="m 719,192 h 2 c 2.813,-8.185 5.118,-15.953 4.559,-21.75 -0.292,-3.029 -1.367,-5.52 -3.559,-7.25 l -1,1 -1,-1 -1,1 -1,-1 c -6.388,5.042 -3.284,16.538 1,29 z"
   style="fill:url(#_Radial7)"
   id="path9" />
                        </g>
                        <g
   transform="matrix(-1,0,0,1,1488,0)"
   id="g11">
                            <path
   d="m 719,192 h 2 c 2.813,-8.185 5.118,-15.953 4.559,-21.75 -0.292,-3.029 -1.367,-5.52 -3.559,-7.25 l -1,1 -1,-1 -1,1 -1,-1 c -6.388,5.042 -3.284,16.538 1,29 z"
   style="fill:url(#_Radial8)"
   id="path10" />
                        </g>
                    </g>
                    <g
   transform="rotate(30.000012,776.00001,221.85578)"
   id="g15">
                        <g
   transform="matrix(-1,0,0,1,1488,0)"
   id="g13">
                            <path
   d="m 719,192 h 2 c 2.813,-8.185 5.118,-15.953 4.559,-21.75 -0.292,-3.029 -1.367,-5.52 -3.559,-7.25 l -1,1 -1,-1 -1,1 -1,-1 c -6.388,5.042 -3.284,16.538 1,29 z"
   style="fill:url(#_Radial9)"
   id="path12" />
                        </g>
                        <g
   transform="matrix(-1,0,0,1,1488,0)"
   id="g14">
                            <path
   d="m 719,192 h 2 c 2.813,-8.185 5.118,-15.953 4.559,-21.75 -0.292,-3.029 -1.367,-5.52 -3.559,-7.25 l -1,1 -1,-1 -1,1 -1,-1 c -6.388,5.042 -3.284,16.538 1,29 z"
   style="fill:url(#_Radial10)"
   id="path13" />
                        </g>
                    </g>
                    <g
   transform="rotate(149.99999,776.00015,194.14367)"
   id="g18">
                        <g
   transform="matrix(-1,0,0,1,1488,0)"
   id="g16">
                            <path
   d="m 719,192 h 2 c 2.813,-8.185 5.118,-15.953 4.559,-21.75 -0.292,-3.029 -1.367,-5.52 -3.559,-7.25 l -1,1 -1,-1 -1,1 -1,-1 c -6.388,5.042 -3.284,16.538 1,29 z"
   style="fill:url(#_Radial11)"
   id="path15" />
                        </g>
                        <g
   transform="matrix(-1,0,0,1,1488,0)"
   id="g17">
                            <path
   d="m 719,192 h 2 c 2.813,-8.185 5.118,-15.953 4.559,-21.75 -0.292,-3.029 -1.367,-5.52 -3.559,-7.25 l -1,1 -1,-1 -1,1 -1,-1 c -6.388,5.042 -3.284,16.538 1,29 z"
   style="fill:url(#_Radial12)"
   id="path16" />
                        </g>
                    </g>
                    <g
   transform="rotate(120.00001,776.00013,196.61867)"
   id="g21">
                        <g
   transform="matrix(-1,0,0,1,1488,0)"
   id="g19">
                            <path
   d="m 719,192 h 2 c 2.813,-8.185 5.118,-15.953 4.559,-21.75 -0.292,-3.029 -1.367,-5.52 -3.559,-7.25 l -1,1 -1,-1 -1,1 -1,-1 c -6.388,5.042 -3.284,16.538 1,29 z"
   style="fill:url(#_Radial13)"
   id="path18" />
                        </g>
                        <g
   transform="matrix(-1,0,0,1,1488,0)"
   id="g20">
                            <path
   d="m 719,192 h 2 c 2.813,-8.185 5.118,-15.953 4.559,-21.75 -0.292,-3.029 -1.367,-5.52 -3.559,-7.25 l -1,1 -1,-1 -1,1 -1,-1 c -6.388,5.042 -3.284,16.538 1,29 z"
   style="fill:url(#_Radial14)"
   id="path19" />
                        </g>
                    </g>
                    <g
   transform="rotate(-30.000012,775.99972,162.14415)"
   id="g24">
                        <g
   transform="matrix(-1,0,0,1,1488,0)"
   id="g22">
                            <path
   d="m 719,192 h 2 c 2.813,-8.185 5.118,-15.953 4.559,-21.75 -0.292,-3.029 -1.367,-5.52 -3.559,-7.25 l -1,1 -1,-1 -1,1 -1,-1 c -6.388,5.042 -3.284,16.538 1,29 z"
   style="fill:url(#_Radial15)"
   id="path21" />
                        </g>
                        <g
   transform="matrix(-1,0,0,1,1488,0)"
   id="g23">
                            <path
   d="m 719,192 h 2 c 2.813,-8.185 5.118,-15.953 4.559,-21.75 -0.292,-3.029 -1.367,-5.52 -3.559,-7.25 l -1,1 -1,-1 -1,1 -1,-1 c -6.388,5.042 -3.284,16.538 1,29 z"
   style="fill:url(#_Radial16)"
   id="path22" />
                        </g>
                    </g>
                    <g
   transform="rotate(90,776,200)"
   id="g27">
                        <g
   transform="matrix(-1,0,0,1,1488,0)"
   id="g25">
                            <path
   d="m 719,192 h 2 c 2.813,-8.185 5.118,-15.953 4.559,-21.75 -0.292,-3.029 -1.367,-5.52 -3.559,-7.25 l -1,1 -1,-1 -1,1 -1,-1 c -6.388,5.042 -3.284,16.538 1,29 z"
   style="fill:url(#_Radial17)"
   id="path24" />
                        </g>
                        <g
   transform="matrix(-1,0,0,1,1488,0)"
   id="g26">
                            <path
   d="m 719,192 h 2 c 2.813,-8.185 5.118,-15.953 4.559,-21.75 -0.292,-3.029 -1.367,-5.52 -3.559,-7.25 l -1,1 -1,-1 -1,1 -1,-1 c -6.388,5.042 -3.284,16.538 1,29 z"
   style="fill:url(#_Radial18)"
   id="path25" />
                        </g>
                    </g>
                    <g
   transform="rotate(-90,776,184)"
   id="g30">
                        <g
   transform="matrix(-1,0,0,1,1488,0)"
   id="g28">
                            <path
   d="m 719,192 h 2 c 2.813,-8.185 5.118,-15.953 4.559,-21.75 -0.292,-3.029 -1.367,-5.52 -3.559,-7.25 l -1,1 -1,-1 -1,1 -1,-1 c -6.388,5.042 -3.284,16.538 1,29 z"
   style="fill:url(#_Radial19)"
   id="path27" />
                        </g>
                        <g
   transform="matrix(-1,0,0,1,1488,0)"
   id="g29">
                            <path
   d="m 719,192 h 2 c 2.813,-8.185 5.118,-15.953 4.559,-21.75 -0.292,-3.029 -1.367,-5.52 -3.559,-7.25 l -1,1 -1,-1 -1,1 -1,-1 c -6.388,5.042 -3.284,16.538 1,29 z"
   style="fill:url(#_Radial20)"
   id="path28" />
                        </g>
                    </g>
                    <g
   transform="rotate(-180,776,192)"
   id="g33">
                        <g
   transform="matrix(-1,0,0,1,1488,0)"
   id="g31">
                            <path
   d="m 719,192 h 2 c 4.284,-12.462 7.388,-23.958 1,-29 l -1,1 -1,-1 -1,1 -1,-1 c -6.388,5.042 -3.284,16.538 1,29 z"
   style="fill:url(#_Radial21)"
   id="path30" />
                        </g>
                        <g
   transform="matrix(-1,0,0,1,1488,0)"
   id="g32">
                            <path
   d="m 719,192 h 2 c 4.284,-12.462 7.388,-23.958 1,-29 l -1,1 -1,-1 -1,1 -1,-1 c -6.388,5.042 -3.284,16.538 1,29 z"
   style="fill:url(#_Radial22)"
   id="path31" />
                        </g>
                    </g>
                    <g
   transform="translate(16)"
   id="g36">
                        <g
   transform="matrix(-1,0,0,1,1488,0)"
   id="g34">
                            <path
   d="m 719,192 h 2 c 2.813,-8.185 5.118,-15.953 4.559,-21.75 -0.292,-3.029 -1.367,-5.52 -3.559,-7.25 l -1,1 -1,-1 -1,1 -1,-1 c -6.388,5.042 -3.284,16.538 1,29 z"
   style="fill:url(#_Radial23)"
   id="path33" />
                        </g>
                        <g
   transform="matrix(-1,0,0,1,1488,0)"
   id="g35">
                            <path
   d="m 719,192 h 2 c 2.813,-8.185 5.118,-15.953 4.559,-21.75 -0.292,-3.029 -1.367,-5.52 -3.559,-7.25 l -1,1 -1,-1 -1,1 -1,-1 c -6.388,5.042 -3.284,16.538 1,29 z"
   style="fill:url(#_Radial24)"
   id="path34" />
                        </g>
                    </g>
                </g>
                <g
   transform="matrix(4.257081,0,0,4.294849,-1175.0841,-259.98019)"
   id="g38">
                    <ellipse
   cx="432.005"
   cy="111"
   rx="0.995"
   ry="0.99000001"
   style="fill:url(#_Radial25)"
   id="ellipse37" />
                </g>
                <g
   transform="matrix(0.25,0,0,0.25,556.00254,188)"
   id="g39">
                    <path
   d="m 432,112 0.005,-18"
   style="fill:none;stroke:#000000;stroke-width:4px"
   id="path38" />
                </g>
            </g>
            <g
   transform="matrix(0.25,0,0,0.25,556.00254,188)"
   id="g41">
                <path
   d="m 432,112 0.005,-18"
   style="fill:none;stroke:#000000;stroke-width:4px"
   id="path40" />
            </g>
            <g
   transform="matrix(-0.12496,0.216529,-0.144372,-0.083273,734.15491,131.78586)"
   id="g42">
                <path
   d="m 432,112 0.005,-18"
   style="fill:none;stroke:#000000;stroke-width:4.71px"
   id="path41" />
            </g>
            <g
   transform="matrix(1.252474,0,0,1.263578,122.92097,75.742851)"
   id="g43">
                <ellipse
   cx="432.005"
   cy="111"
   rx="0.995"
   ry="0.99000001"
   id="ellipse42" />
            </g>
            <g
   transform="matrix(0.500609,0,0,0.50505,447.73815,159.9394)"
   id="g44">
                <ellipse
   cx="432.005"
   cy="111"
   rx="0.995"
   ry="0.99000001"
   style="fill:#ffffff"
   id="ellipse43" />
            </g>
        </g>
    </g>
    <defs
   id="defs144">
        <radialGradient
   id="_Radial1"
   cx="0"
   cy="0"
   r="1"
   gradientUnits="userSpaceOnUse"
   gradientTransform="matrix(0,-21,-14,0,720,184)"><stop
     offset="0"
     style="stop-color:rgb(248,189,2);stop-opacity:1"
     id="stop46" /><stop
     offset="0.33"
     style="stop-color:rgb(250,122,20);stop-opacity:1"
     id="stop47" /><stop
     offset="0.76"
     style="stop-color:rgb(235,72,2);stop-opacity:1"
     id="stop48" /><stop
     offset="1"
     style="stop-color:rgb(239,109,1);stop-opacity:1"
     id="stop49" /></radialGradient>
        <radialGradient
   id="_Radial2"
   cx="0"
   cy="0"
   r="1"
   gradientUnits="userSpaceOnUse"
   gradientTransform="matrix(0,-21,-14,0,720,184)"><stop
     offset="0"
     style="stop-color:rgb(248,189,2);stop-opacity:1"
     id="stop50" /><stop
     offset="0.33"
     style="stop-color:rgb(250,122,20);stop-opacity:1"
     id="stop51" /><stop
     offset="0.76"
     style="stop-color:rgb(235,72,2);stop-opacity:1"
     id="stop52" /><stop
     offset="1"
     style="stop-color:rgb(239,109,1);stop-opacity:1"
     id="stop53" /></radialGradient>
        <radialGradient
   id="_Radial3"
   cx="0"
   cy="0"
   r="1"
   gradientUnits="userSpaceOnUse"
   gradientTransform="matrix(0,-21,-14,0,720,184)"><stop
     offset="0"
     style="stop-color:rgb(248,189,2);stop-opacity:1"
     id="stop54" /><stop
     offset="0.33"
     style="stop-color:rgb(250,122,20);stop-opacity:1"
     id="stop55" /><stop
     offset="0.76"
     style="stop-color:rgb(235,72,2);stop-opacity:1"
     id="stop56" /><stop
     offset="1"
     style="stop-color:rgb(239,109,1);stop-opacity:1"
     id="stop57" /></radialGradient>
        <radialGradient
   id="_Radial4"
   cx="0"
   cy="0"
   r="1"
   gradientUnits="userSpaceOnUse"
   gradientTransform="matrix(0,-21,-14,0,720,184)"><stop
     offset="0"
     style="stop-color:rgb(248,189,2);stop-opacity:1"
     id="stop58" /><stop
     offset="0.33"
     style="stop-color:rgb(250,122,20);stop-opacity:1"
     id="stop59" /><stop
     offset="0.76"
     style="stop-color:rgb(235,72,2);stop-opacity:1"
     id="stop60" /><stop
     offset="1"
     style="stop-color:rgb(239,109,1);stop-opacity:1"
     id="stop61" /></radialGradient>
        <radialGradient
   id="_Radial5"
   cx="0"
   cy="0"
   r="1"
   gradientUnits="userSpaceOnUse"
   gradientTransform="matrix(0,-21,-14,0,720,184)"><stop
     offset="0"
     style="stop-color:rgb(248,189,2);stop-opacity:1"
     id="stop62" /><stop
     offset="0.33"
     style="stop-color:rgb(250,122,20);stop-opacity:1"
     id="stop63" /><stop
     offset="0.76"
     style="stop-color:rgb(235,72,2);stop-opacity:1"
     id="stop64" /><stop
     offset="1"
     style="stop-color:rgb(239,109,1);stop-opacity:1"
     id="stop65" /></radialGradient>
        <radialGradient
   id="_Radial6"
   cx="0"
   cy="0"
   r="1"
   gradientUnits="userSpaceOnUse"
   gradientTransform="matrix(0,-21,-14,0,720,184)"><stop
     offset="0"
     style="stop-color:rgb(248,189,2);stop-opacity:1"
     id="stop66" /><stop
     offset="0.33"
     style="stop-color:rgb(250,122,20);stop-opacity:1"
     id="stop67" /><stop
     offset="0.76"
     style="stop-color:rgb(235,72,2);stop-opacity:1"
     id="stop68" /><stop
     offset="1"
     style="stop-color:rgb(239,109,1);stop-opacity:1"
     id="stop69" /></radialGradient>
        <radialGradient
   id="_Radial7"
   cx="0"
   cy="0"
   r="1"
   gradientUnits="userSpaceOnUse"
   gradientTransform="matrix(0,-21,-14,0,720,184)"><stop
     offset="0"
     style="stop-color:rgb(248,189,2);stop-opacity:1"
     id="stop70" /><stop
     offset="0.33"
     style="stop-color:rgb(250,122,20);stop-opacity:1"
     id="stop71" /><stop
     offset="0.76"
     style="stop-color:rgb(235,72,2);stop-opacity:1"
     id="stop72" /><stop
     offset="1"
     style="stop-color:rgb(239,109,1);stop-opacity:1"
     id="stop73" /></radialGradient>
        <radialGradient
   id="_Radial8"
   cx="0"
   cy="0"
   r="1"
   gradientUnits="userSpaceOnUse"
   gradientTransform="matrix(0,-21,-14,0,720,184)"><stop
     offset="0"
     style="stop-color:rgb(248,189,2);stop-opacity:1"
     id="stop74" /><stop
     offset="0.33"
     style="stop-color:rgb(250,122,20);stop-opacity:1"
     id="stop75" /><stop
     offset="0.76"
     style="stop-color:rgb(235,72,2);stop-opacity:1"
     id="stop76" /><stop
     offset="1"
     style="stop-color:rgb(239,109,1);stop-opacity:1"
     id="stop77" /></radialGradient>
        <radialGradient
   id="_Radial9"
   cx="0"
   cy="0"
   r="1"
   gradientUnits="userSpaceOnUse"
   gradientTransform="matrix(0,-21,-14,0,720,184)"><stop
     offset="0"
     style="stop-color:rgb(248,189,2);stop-opacity:1"
     id="stop78" /><stop
     offset="0.33"
     style="stop-color:rgb(250,122,20);stop-opacity:1"
     id="stop79" /><stop
     offset="0.76"
     style="stop-color:rgb(235,72,2);stop-opacity:1"
     id="stop80" /><stop
     offset="1"
     style="stop-color:rgb(239,109,1);stop-opacity:1"
     id="stop81" /></radialGradient>
        <radialGradient
   id="_Radial10"
   cx="0"
   cy="0"
   r="1"
   gradientUnits="userSpaceOnUse"
   gradientTransform="matrix(0,-21,-14,0,720,184)"><stop
     offset="0"
     style="stop-color:rgb(248,189,2);stop-opacity:1"
     id="stop82" /><stop
     offset="0.33"
     style="stop-color:rgb(250,122,20);stop-opacity:1"
     id="stop83" /><stop
     offset="0.76"
     style="stop-color:rgb(235,72,2);stop-opacity:1"
     id="stop84" /><stop
     offset="1"
     style="stop-color:rgb(239,109,1);stop-opacity:1"
     id="stop85" /></radialGradient>
        <radialGradient
   id="_Radial11"
   cx="0"
   cy="0"
   r="1"
   gradientUnits="userSpaceOnUse"
   gradientTransform="matrix(0,-21,-14,0,720,184)"><stop
     offset="0"
     style="stop-color:rgb(248,189,2);stop-opacity:1"
     id="stop86" /><stop
     offset="0.33"
     style="stop-color:rgb(250,122,20);stop-opacity:1"
     id="stop87" /><stop
     offset="0.76"
     style="stop-color:rgb(235,72,2);stop-opacity:1"
     id="stop88" /><stop
     offset="1"
     style="stop-color:rgb(239,109,1);stop-opacity:1"
     id="stop89" /></radialGradient>
        <radialGradient
   id="_Radial12"
   cx="0"
   cy="0"
   r="1"
   gradientUnits="userSpaceOnUse"
   gradientTransform="matrix(0,-21,-14,0,720,184)"><stop
     offset="0"
     style="stop-color:rgb(248,189,2);stop-opacity:1"
     id="stop90" /><stop
     offset="0.33"
     style="stop-color:rgb(250,122,20);stop-opacity:1"
     id="stop91" /><stop
     offset="0.76"
     style="stop-color:rgb(235,72,2);stop-opacity:1"
     id="stop92" /><stop
     offset="1"
     style="stop-color:rgb(239,109,1);stop-opacity:1"
     id="stop93" /></radialGradient>
        <radialGradient
   id="_Radial13"
   cx="0"
   cy="0"
   r="1"
   gradientUnits="userSpaceOnUse"
   gradientTransform="matrix(0,-21,-14,0,720,184)"><stop
     offset="0"
     style="stop-color:rgb(248,189,2);stop-opacity:1"
     id="stop94" /><stop
     offset="0.33"
     style="stop-color:rgb(250,122,20);stop-opacity:1"
     id="stop95" /><stop
     offset="0.76"
     style="stop-color:rgb(235,72,2);stop-opacity:1"
     id="stop96" /><stop
     offset="1"
     style="stop-color:rgb(239,109,1);stop-opacity:1"
     id="stop97" /></radialGradient>
        <radialGradient
   id="_Radial14"
   cx="0"
   cy="0"
   r="1"
   gradientUnits="userSpaceOnUse"
   gradientTransform="matrix(0,-21,-14,0,720,184)"><stop
     offset="0"
     style="stop-color:rgb(248,189,2);stop-opacity:1"
     id="stop98" /><stop
     offset="0.33"
     style="stop-color:rgb(250,122,20);stop-opacity:1"
     id="stop99" /><stop
     offset="0.76"
     style="stop-color:rgb(235,72,2);stop-opacity:1"
     id="stop100" /><stop
     offset="1"
     style="stop-color:rgb(239,109,1);stop-opacity:1"
     id="stop101" /></radialGradient>
        <radialGradient
   id="_Radial15"
   cx="0"
   cy="0"
   r="1"
   gradientUnits="userSpaceOnUse"
   gradientTransform="matrix(0,-21,-14,0,720,184)"><stop
     offset="0"
     style="stop-color:rgb(248,189,2);stop-opacity:1"
     id="stop102" /><stop
     offset="0.33"
     style="stop-color:rgb(250,122,20);stop-opacity:1"
     id="stop103" /><stop
     offset="0.76"
     style="stop-color:rgb(235,72,2);stop-opacity:1"
     id="stop104" /><stop
     offset="1"
     style="stop-color:rgb(239,109,1);stop-opacity:1"
     id="stop105" /></radialGradient>
        <radialGradient
   id="_Radial16"
   cx="0"
   cy="0"
   r="1"
   gradientUnits="userSpaceOnUse"
   gradientTransform="matrix(0,-21,-14,0,720,184)"><stop
     offset="0"
     style="stop-color:rgb(248,189,2);stop-opacity:1"
     id="stop106" /><stop
     offset="0.33"
     style="stop-color:rgb(250,122,20);stop-opacity:1"
     id="stop107" /><stop
     offset="0.76"
     style="stop-color:rgb(235,72,2);stop-opacity:1"
     id="stop108" /><stop
     offset="1"
     style="stop-color:rgb(239,109,1);stop-opacity:1"
     id="stop109" /></radialGradient>
        <radialGradient
   id="_Radial17"
   cx="0"
   cy="0"
   r="1"
   gradientUnits="userSpaceOnUse"
   gradientTransform="matrix(0,-21,-14,0,720,184)"><stop
     offset="0"
     style="stop-color:rgb(248,189,2);stop-opacity:1"
     id="stop110" /><stop
     offset="0.33"
     style="stop-color:rgb(250,122,20);stop-opacity:1"
     id="stop111" /><stop
     offset="0.76"
     style="stop-color:rgb(235,72,2);stop-opacity:1"
     id="stop112" /><stop
     offset="1"
     style="stop-color:rgb(239,109,1);stop-opacity:1"
     id="stop113" /></radialGradient>
        <radialGradient
   id="_Radial18"
   cx="0"
   cy="0"
   r="1"
   gradientUnits="userSpaceOnUse"
   gradientTransform="matrix(0,-21,-14,0,720,184)"><stop
     offset="0"
     style="stop-color:rgb(248,189,2);stop-opacity:1"
     id="stop114" /><stop
     offset="0.33"
     style="stop-color:rgb(250,122,20);stop-opacity:1"
     id="stop115" /><stop
     offset="0.76"
     style="stop-color:rgb(235,72,2);stop-opacity:1"
     id="stop116" /><stop
     offset="1"
     style="stop-color:rgb(239,109,1);stop-opacity:1"
     id="stop117" /></radialGradient>
        <radialGradient
   id="_Radial19"
   cx="0"
   cy="0"
   r="1"
   gradientUnits="userSpaceOnUse"
   gradientTransform="matrix(0,-21,-14,0,720,184)"><stop
     offset="0"
     style="stop-color:rgb(248,189,2);stop-opacity:1"
     id="stop118" /><stop
     offset="0.33"
     style="stop-color:rgb(250,122,20);stop-opacity:1"
     id="stop119" /><stop
     offset="0.76"
     style="stop-color:rgb(235,72,2);stop-opacity:1"
     id="stop120" /><stop
     offset="1"
     style="stop-color:rgb(239,109,1);stop-opacity:1"
     id="stop121" /></radialGradient>
        <radialGradient
   id="_Radial20"
   cx="0"
   cy="0"
   r="1"
   gradientUnits="userSpaceOnUse"
   gradientTransform="matrix(0,-21,-14,0,720,184)"><stop
     offset="0"
     style="stop-color:rgb(248,189,2);stop-opacity:1"
     id="stop122" /><stop
     offset="0.33"
     style="stop-color:rgb(250,122,20);stop-opacity:1"
     id="stop123" /><stop
     offset="0.76"
     style="stop-color:rgb(235,72,2);stop-opacity:1"
     id="stop124" /><stop
     offset="1"
     style="stop-color:rgb(239,109,1);stop-opacity:1"
     id="stop125" /></radialGradient>
        <radialGradient
   id="_Radial21"
   cx="0"
   cy="0"
   r="1"
   gradientUnits="userSpaceOnUse"
   gradientTransform="matrix(0,-21,-14,0,720,184)"><stop
     offset="0"
     style="stop-color:rgb(248,189,2);stop-opacity:1"
     id="stop126" /><stop
     offset="0.33"
     style="stop-color:rgb(250,122,20);stop-opacity:1"
     id="stop127" /><stop
     offset="0.76"
     style="stop-color:rgb(235,72,2);stop-opacity:1"
     id="stop128" /><stop
     offset="1"
     style="stop-color:rgb(239,109,1);stop-opacity:1"
     id="stop129" /></radialGradient>
        <radialGradient
   id="_Radial22"
   cx="0"
   cy="0"
   r="1"
   gradientUnits="userSpaceOnUse"
   gradientTransform="matrix(0,-21,-14,0,720,184)"><stop
     offset="0"
     style="stop-color:rgb(248,189,2);stop-opacity:1"
     id="stop130" /><stop
     offset="0.33"
     style="stop-color:rgb(250,122,20);stop-opacity:1"
     id="stop131" /><stop
     offset="0.76"
     style="stop-color:rgb(235,72,2);stop-opacity:1"
     id="stop132" /><stop
     offset="1"
     style="stop-color:rgb(239,109,1);stop-opacity:1"
     id="stop133" /></radialGradient>
        <radialGradient
   id="_Radial23"
   cx="0"
   cy="0"
   r="1"
   gradientUnits="userSpaceOnUse"
   gradientTransform="matrix(0,-21,-14,0,720,184)"><stop
     offset="0"
     style="stop-color:rgb(248,189,2);stop-opacity:1"
     id="stop134" /><stop
     offset="0.33"
     style="stop-color:rgb(250,122,20);stop-opacity:1"
     id="stop135" /><stop
     offset="0.76"
     style="stop-color:rgb(235,72,2);stop-opacity:1"
     id="stop136" /><stop
     offset="1"
     style="stop-color:rgb(239,109,1);stop-opacity:1"
     id="stop137" /></radialGradient>
        <radialGradient
   id="_Radial24"
   cx="0"
   cy="0"
   r="1"
   gradientUnits="userSpaceOnUse"
   gradientTransform="matrix(0,-21,-14,0,720,184)"><stop
     offset="0"
     style="stop-color:rgb(248,189,2);stop-opacity:1"
     id="stop138" /><stop
     offset="0.33"
     style="stop-color:rgb(250,122,20);stop-opacity:1"
     id="stop139" /><stop
     offset="0.76"
     style="stop-color:rgb(235,72,2);stop-opacity:1"
     id="stop140" /><stop
     offset="1"
     style="stop-color:rgb(239,109,1);stop-opacity:1"
     id="stop141" /></radialGradient>
        <radialGradient
   id="_Radial25"
   cx="0"
   cy="0"
   r="1"
   gradientUnits="userSpaceOnUse"
   gradientTransform="matrix(0,-0.99,0.998783,0,431.99996,111)"><stop
     offset="0"
     style="stop-color:rgb(245,212,0);stop-opacity:1"
     id="stop142" /><stop
     offset="0.26"
     style="stop-color:rgb(242,208,0);stop-opacity:0.82"
     id="stop143" /><stop
     offset="1"
     style="stop-color:rgb(206,90,0);stop-opacity:0"
     id="stop144" /></radialGradient>
    </defs>
</svg>
